PathFileType	4	(X/Y/Z)	c:/Users/goper/Files/vsCode/490R/osim_files/C05/C05_Slow_02.trc
DataRate	CameraRate	NumFrames	NumMarkers	Units                	OrigDataRate	OrigDataStartFrame	OrigNumFrames
250.00	250.00	5	36	mm	250.0	1505	3009
                Frame#	Time	LPSIS			LASIS			LTH1			LTH2			LTH3			LTH4			LLFE			LMFE			LSH1			LSH2			LSH3			LSH4			LLMAL			LMMAL			LCAL			LMTP5			LTOE			LMTP1			RPSIS			RASIS			RTH1			RTH2			RTH3			RTH4			RLFE			RMFE			RSH1			RSH2			RSH3			RSH4			RLMAL			RMMAL			RCAL			RMTP1			RTOE			RMTP5		
		X1	Y1	Z1	X2	Y2	Z2	X3	Y3	Z3	X4	Y4	Z4	X5	Y5	Z5	X6	Y6	Z6	X7	Y7	Z7	X8	Y8	Z8	X9	Y9	Z9	X10	Y10	Z10	X11	Y11	Z11	X12	Y12	Z12	X13	Y13	Z13	X14	Y14	Z14	X15	Y15	Z15	X16	Y16	Z16	X17	Y17	Z17	X18	Y18	Z18	X19	Y19	Z19	X20	Y20	Z20	X21	Y21	Z21	X22	Y22	Z22	X23	Y23	Z23	X24	Y24	Z24	X25	Y25	Z25	X26	Y26	Z26	X27	Y27	Z27	X28	Y28	Z28	X29	Y29	Z29	X30	Y30	Z30	X31	Y31	Z31	X32	Y32	Z32	X33	Y33	Z33	X34	Y34	Z34	X35	Y35	Z35	X36	Y36	Z36

1505	6.01600	178.61581	1027.46704	301.82965	-23.25661	1002.02240	347.15741	-67.32065	708.98328	383.27863	-81.86961	649.79236	369.74854	4.54220	683.02673	391.12180	-19.57660	626.80365	376.43103	-88.59756	540.44189	346.93655	-70.96959	537.98126	233.50417	-6.48309	359.07724	361.43179	-10.35691	315.35992	354.89990	-70.23808	358.06168	363.05710	-64.63072	315.05981	355.11942	-28.40314	95.55859	318.61755	-51.78517	108.36382	234.36789	31.09501	68.66621	267.80316	-168.06534	39.29099	344.48483	-204.41689	63.83786	282.49176	-187.56152	41.12768	238.56006	179.79782	1027.35461	192.33548	-9.21483	985.72076	116.29771	28.46152	641.63800	82.39951	23.60774	579.94324	92.02908	104.01996	631.27856	87.86321	87.86360	570.80682	98.40271	0.00000	0.00000	0.00000	48.09862	482.37335	107.17863	207.52942	432.16754	87.84201	242.69765	398.61441	90.92781	171.62935	381.91620	90.26932	210.77936	356.44098	93.75805	420.94458	241.20885	117.10899	399.21716	233.16937	202.23901	480.24771	283.64722	162.20052	392.87671	89.29900	208.24792	363.92032	79.44120	159.04224	420.28882	95.93578	98.05721
1506	6.02000	174.48044	1028.09534	302.23508	-27.19711	1002.59393	347.43503	-70.48306	708.92261	383.32260	-84.72088	649.74542	369.81256	1.24240	683.37018	391.39886	-22.15278	627.09271	376.64612	-90.89685	540.31366	347.00473	-72.71194	537.70667	233.55902	-7.97566	359.22205	361.77023	-11.91614	315.89462	355.22278	-71.74023	357.90063	363.10974	-65.55779	315.19827	355.77335	-28.54700	95.62251	318.61847	-51.91374	108.33607	234.31825	31.04885	68.72050	267.81271	-167.95996	39.38659	344.62799	-204.50211	63.63819	282.50296	-187.55991	40.78990	238.65445	175.81563	1027.76538	192.78676	-13.10443	986.34912	116.42836	21.45850	642.42206	82.13249	16.02799	580.78802	91.57967	96.79559	631.42084	87.86621	80.18771	571.14075	98.28479	0.00000	0.00000	0.00000	0.00000	0.00000	0.00000	198.98320	433.89084	87.12122	233.69501	400.27002	90.61373	162.89885	383.14651	89.96422	202.28998	357.90460	93.32304	413.15320	244.02689	116.95502	390.85583	235.90498	201.95151	472.48526	286.04388	162.47885	384.32562	91.84750	207.35005	355.35989	82.31162	157.89223	412.13809	98.85314	97.13622
1507	6.02400	170.39035	1028.82153	302.63055	-31.55190	1003.15485	347.44156	-73.63758	709.00769	383.30338	-87.55114	649.74097	369.85019	-1.71674	683.94928	391.80859	-25.29725	627.34937	377.00821	-93.13219	540.17877	346.96500	-74.80003	537.63898	233.59546	-9.45500	359.31079	362.04004	-13.48717	315.78064	355.10516	-73.17227	357.77023	363.04782	-66.78963	315.07062	355.75809	-28.67820	95.68533	318.59930	-52.05544	108.34380	234.25813	31.00927	68.76763	267.81958	-168.10930	39.20120	344.56937	-204.55594	63.48359	282.51010	-187.57022	40.72177	238.62271	171.94099	1028.28857	193.21931	-17.04990	987.02832	116.59438	14.38654	643.26923	81.82771	8.37246	581.68280	91.25118	89.66944	631.62219	87.87846	72.41264	571.41760	98.14297	0.00000	0.00000	0.00000	30.70265	484.06409	106.00896	190.08440	435.42761	86.80819	224.84900	401.95297	90.32230	154.27881	384.40433	89.68752	193.67833	359.41086	93.10692	405.26425	246.64511	116.75533	382.20166	238.33701	201.39934	464.42731	288.12177	162.81000	375.12402	94.13746	206.07867	346.62100	85.06105	156.67067	403.78033	101.60786	96.20793
1508	6.02800	166.31593	1029.46118	303.01572	-35.66158	1003.78760	347.59598	-77.28337	709.18018	381.15762	-90.45872	649.82092	369.90860	-4.96651	684.25372	392.08908	-28.18901	627.64392	377.24554	-95.35692	539.94232	346.93787	-75.64497	537.24664	233.91096	-10.73654	359.50848	362.15134	-14.73419	315.91620	355.19220	-74.43173	357.69342	363.10864	-68.23962	314.80472	355.14987	-28.80083	95.75073	318.55243	-52.18269	108.34090	234.18201	30.96757	68.80123	267.78845	-168.02313	39.26653	344.67984	-204.65063	63.33855	282.50372	-187.57776	40.47900	238.67278	168.03465	1028.80444	193.58186	-20.96397	987.78784	116.78088	7.42109	644.17456	81.52991	0.85048	582.69141	90.76092	82.48195	631.85638	87.88960	64.73235	571.83124	98.03715	0.00000	0.00000	0.00000	21.83550	484.71838	105.79353	180.39816	436.38809	87.02178	216.12648	403.62823	90.13924	145.61655	385.80853	89.44027	185.22673	360.95837	92.93345	397.16461	249.09093	116.63956	373.74741	240.59497	201.14769	456.73553	290.30392	162.95670	365.97769	96.31786	205.02287	337.58792	87.60070	155.16905	395.14737	104.20793	95.21649
1509	6.03200	162.20422	1030.03125	303.32639	-39.47894	1004.38501	347.91489	-80.18935	709.15094	381.64868	-93.22787	649.82098	369.92807	-8.14346	684.65387	392.40317	-31.05820	627.87927	377.51273	-97.44505	539.81970	346.95007	-77.12424	537.02905	234.07805	-11.95765	359.69284	362.14316	-15.69602	316.06091	355.22885	-75.68272	357.60153	363.09229	-69.30540	314.69611	355.09583	-28.93304	95.83472	318.49765	-52.32887	108.36050	234.09261	30.91312	68.84192	267.76544	-168.21550	39.11541	344.59848	-204.73624	63.18089	282.50842	-187.60539	40.38964	238.64540	164.11055	1029.25854	193.92812	-24.94879	988.54181	116.94476	0.47189	645.20935	81.17947	-6.75546	583.73468	90.38785	75.35307	632.18927	87.84434	57.07425	572.36664	97.85938	0.00000	0.00000	0.00000	13.37493	486.05246	104.21021	171.73129	438.07840	86.64017	207.96890	405.58826	89.62385	136.91641	387.16464	89.20988	176.57722	362.55777	92.86150	388.92477	251.40891	116.51913	365.04968	242.41035	201.02370	448.15842	291.88208	163.75864	356.67096	98.16655	203.76782	328.38895	89.99299	153.85327	386.42020	106.64857	94.18544
